REM DIRINDEX 1\3,1\4,1\5,1\6,1\2\7,1\2\8,1\2\9,1\2\10,1\2\11
REM DIRNAME folder01,folder02,folder03,folder04,folder05,folder06,folder07,folder08,folder09,folder10,folder11
TITLE ""
FILE "DISC5Track27.mp3" MP3
  TRACK 01 AUDIO
    TITLE "0:"
    INDEX 01 00:00:00
  TRACK 02 AUDIO
    TITLE "3:cjc021_5539"
    INDEX 01 00:00:23
  TRACK 03 AUDIO
    TITLE "0:"
    INDEX 01 00:01:60
  TRACK 04 AUDIO
    TITLE "4:cjc021_5540"
    INDEX 01 00:03:35
  TRACK 05 AUDIO
    TITLE "0:"
    INDEX 01 00:04:72
  TRACK 06 AUDIO
    TITLE "5:cjc021_5541"
    INDEX 01 00:05:32
  TRACK 07 AUDIO
    TITLE "0:"
    INDEX 01 00:09:08
  TRACK 08 AUDIO
    TITLE "3:cjc021_5542"
    INDEX 01 00:10:45
  TRACK 09 AUDIO
    TITLE "0:"
    INDEX 01 00:11:60
  TRACK 10 AUDIO
    TITLE "4:cjc021_5543"
    INDEX 01 00:13:37
  TRACK 11 AUDIO
    TITLE "0:"
    INDEX 01 00:14:54
  TRACK 12 AUDIO
    TITLE "5:cjc021_5544"
    INDEX 01 00:15:17
  TRACK 13 AUDIO
    TITLE "0:"
    INDEX 01 00:17:41
  TRACK 14 AUDIO
    TITLE "3:cjc021_5545"
    INDEX 01 00:19:03
  TRACK 15 AUDIO
    TITLE "0:"
    INDEX 01 00:20:04
  TRACK 16 AUDIO
    TITLE "4:cjc021_5546"
    INDEX 01 00:21:55
  TRACK 17 AUDIO
    TITLE "0:"
    INDEX 01 00:22:52
  TRACK 18 AUDIO
    TITLE "5:cjc021_5547"
    INDEX 01 00:23:14
  TRACK 19 AUDIO
    TITLE "0:"
    INDEX 01 00:26:58
  TRACK 20 AUDIO
    TITLE "3:cjc021_5548"
    INDEX 01 00:28:17
  TRACK 21 AUDIO
    TITLE "0:"
    INDEX 01 00:29:15
  TRACK 22 AUDIO
    TITLE "4:cjc021_5549"
    INDEX 01 00:30:67
  TRACK 23 AUDIO
    TITLE "0:"
    INDEX 01 00:31:67
  TRACK 24 AUDIO
    TITLE "5:cjc021_5550"
    INDEX 01 00:32:29
  TRACK 25 AUDIO
    TITLE "0:"
    INDEX 01 00:34:28
  TRACK 26 AUDIO
    TITLE "3:cjc021_5551"
    INDEX 01 00:35:66
  TRACK 27 AUDIO
    TITLE "0:"
    INDEX 01 00:37:07
  TRACK 28 AUDIO
    TITLE "4:cjc021_5552"
    INDEX 01 00:38:57
  TRACK 29 AUDIO
    TITLE "0:"
    INDEX 01 00:39:70
  TRACK 30 AUDIO
    TITLE "5:cjc021_5553"
    INDEX 01 00:40:30
  TRACK 31 AUDIO
    TITLE "0:"
    INDEX 01 00:43:13
  TRACK 32 AUDIO
    TITLE "3:cjc021_5554"
    INDEX 01 00:44:50
  TRACK 33 AUDIO
    TITLE "0:"
    INDEX 01 00:46:04
  TRACK 34 AUDIO
    TITLE "4:cjc021_5555"
    INDEX 01 00:47:54
  TRACK 35 AUDIO
    TITLE "0:"
    INDEX 01 00:49:10
  TRACK 36 AUDIO
    TITLE "5:cjc021_5556"
    INDEX 01 00:49:45
  TRACK 37 AUDIO
    TITLE "0:"
    INDEX 01 00:52:30
  TRACK 38 AUDIO
    TITLE "3:cjc021_5557"
    INDEX 01 00:53:68
  TRACK 39 AUDIO
    TITLE "0:"
    INDEX 01 00:55:01
  TRACK 40 AUDIO
    TITLE "4:cjc021_5558"
    INDEX 01 00:56:53
  TRACK 41 AUDIO
    TITLE "0:"
    INDEX 01 00:57:60
  TRACK 42 AUDIO
    TITLE "5:cjc021_5559"
    INDEX 01 00:58:22
  TRACK 43 AUDIO
    TITLE "0:"
    INDEX 01 01:00:33
  TRACK 44 AUDIO
    TITLE "3:cjc021_5560"
    INDEX 01 01:01:68
  TRACK 45 AUDIO
    TITLE "0:"
    INDEX 01 01:03:06
  TRACK 46 AUDIO
    TITLE "4:cjc021_5561"
    INDEX 01 01:04:56
  TRACK 47 AUDIO
    TITLE "0:"
    INDEX 01 01:05:71
  TRACK 48 AUDIO
    TITLE "5:cjc021_5562"
    INDEX 01 01:06:32
  TRACK 49 AUDIO
    TITLE "0:"
    INDEX 01 01:08:56
  TRACK 50 AUDIO
    TITLE "3:cjc021_5563"
    INDEX 01 01:10:16
  TRACK 51 AUDIO
    TITLE "0:"
    INDEX 01 01:11:33
  TRACK 52 AUDIO
    TITLE "4:cjc021_5564"
    INDEX 01 01:13:08
  TRACK 53 AUDIO
    TITLE "0:"
    INDEX 01 01:14:27
  TRACK 54 AUDIO
    TITLE "5:cjc021_5565"
    INDEX 01 01:14:63
  TRACK 55 AUDIO
    TITLE "0:"
    INDEX 01 01:16:65
  TRACK 56 AUDIO
    TITLE "3:cjc021_5566"
    INDEX 01 01:18:25
  TRACK 57 AUDIO
    TITLE "0:"
    INDEX 01 01:19:40
  TRACK 58 AUDIO
    TITLE "4:cjc021_5567"
    INDEX 01 01:21:16
  TRACK 59 AUDIO
    TITLE "0:"
    INDEX 01 01:22:31
  TRACK 60 AUDIO
    TITLE "5:cjc021_5568"
    INDEX 01 01:22:68
  TRACK 61 AUDIO
    TITLE "0:"
    INDEX 01 01:26:01
